<?xml version="1.0" encoding="utf-8"?>
<!-- Generator: Adobe Illustrator 16.0.0, SVG Export Plug-In . SVG Version: 6.00 Build 0)  -->
<!DOCTYPE svg PUBLIC "-//W3C//DTD SVG 1.1//EN" "http://www.w3.org/Graphics/SVG/1.1/DTD/svg11.dtd">
<svg version="1.1" id="Capa_1" xmlns="http://www.w3.org/2000/svg" xmlns:xlink="http://www.w3.org/1999/xlink" x="0px" y="0px"
	 width="1400px" height="980px" viewBox="0 0 1400 980" enable-background="new 0 0 1400 980" xml:space="preserve">
<path d="M25.25,27.4v166.8v146.3v299v146.3v166.8h1349.5V785.9V639.5v-299V194.2V27.4H25.25z M1368.649,57.4
	c-3.8,0-10.699-0.8-16.5-5.5c-4.8-4-7.8-10.1-8.899-18.1h25.3v23.6H1368.649z M696.95,481.3c-3.5,1.3-6,4.7-6,8.7s2.5,7.4,6,8.7
	v124.8c-70.4-1.7-127.101-60.9-127.101-133.6c0-72.601,56.8-131.8,127.101-133.601V481.3z M703.149,498.7c3.5-1.3,6-4.7,6-8.7
	s-2.5-7.4-6-8.7V356.5c70.4,1.7,127.101,60.9,127.101,133.6c0,72.601-56.8,131.801-127.101,133.601V498.7z M56.85,33.8
	c-1.1,8-4.1,14.1-8.8,18c-5.7,4.8-12.7,5.5-16.5,5.5V33.8H56.85z M31.55,346.9h84v286.2h-84V346.9z M121.85,639.5v-299h-90.3V200.6
	h227.2v171.1v236.7v171.1H31.55v-140H121.85z M264.95,384.1c32,25.2,51,64.4,51,105.9c0,41.6-18.9,80.7-51,105.9V384.1z
	 M264.95,785.9v-182c35.8-26.301,57.2-68.7,57.2-113.801c0-45.1-21.399-87.5-57.2-113.8v-182H31.55V63.8c4.7,0,13.2-1,20.4-6.9
	c6.2-5.2,10-12.9,11.2-23h633.9v316.3c-73.9,1.6-133.5,63.7-133.5,139.8s59.5,138.2,133.3,139.9v316.3H63.05
	c-1.2-10.101-4.9-17.8-11.2-23c-7.2-6-15.7-6.9-20.4-6.9V785.9H264.95z M31.55,922.7c3.8,0,10.7,0.8,16.5,5.5
	c4.8,4,7.8,10.1,8.9,18.1h-25.4V922.7z M1343.25,946.3c1.1-8,4.1-14.1,8.8-18c5.7-4.8,12.7-5.5,16.5-5.5V946.4h-25.3V946.3z
	 M1368.649,633.2h-84.1V346.9h84.1V633.2z M1278.25,340.5v299h90.3v140h-227.2V608.4V371.7V200.6h227.2v139.9H1278.25z
	 M1135.149,596c-32-25.2-51-64.4-51-105.9c0-41.6,18.9-80.699,51-105.899V596z M1135.149,194.2v182
	c-35.8,26.3-57.199,68.7-57.199,113.8s21.399,87.5,57.199,113.8v182h233.4v130.5c-4.7,0-13.2,1-20.4,6.9
	c-6.199,5.2-10,12.899-11.199,23H703.149V630c73.801-1.7,133.301-63.8,133.301-139.9c0-76.1-59.5-138.2-133.301-139.899V33.8h633.9
	c1.2,10.1,4.9,17.8,11.2,23c7.2,6,15.7,6.9,20.399,6.9v130.5H1135.149z"/>
<ellipse fill="#F0F0F0" cx="1214.3" cy="492.5" rx="9.3" ry="9.5"/>
<path fill="#F0F0F0" d="M190.7,502.1c5.1,0,9.3-4.3,9.3-9.5c0-5.3-4.2-9.5-9.3-9.5c-5.1,0-9.3,4.301-9.3,9.5
	C181.4,497.8,185.6,502.1,190.7,502.1z"/>
</svg>
