<?xml version="1.0" encoding="utf-8"?>
<!-- Generator: Adobe Illustrator 19.0.0, SVG Export Plug-In . SVG Version: 6.00 Build 0)  -->
<svg version="1.1" id="Layer_1" xmlns="http://www.w3.org/2000/svg" xmlns:xlink="http://www.w3.org/1999/xlink" x="0px" y="0px"
	 width="1400px" height="980px" viewBox="0 0 1400 980" enable-background="new 0 0 1400 980" xml:space="preserve">
<g>
	<rect id="XMLID_66_" y="0" fill-rule="evenodd" clip-rule="evenodd" fill="#33CC66" width="1400" height="980"/>
	<g>
		<g>
			<rect id="XMLID_65_" x="56.4" y="64.5" fill-rule="evenodd" clip-rule="evenodd" fill="#3DBF69" width="96.5" height="121.6"/>
			<polygon id="XMLID_64_" fill-rule="evenodd" clip-rule="evenodd" fill="#3DBF69" points="56.4,307.6 56.4,372.9 56.4,429.2 
				152.9,429.2 152.9,307.6 			"/>
			<polygon id="XMLID_63_" fill-rule="evenodd" clip-rule="evenodd" fill="#3DBF69" points="56.4,550.8 56.4,607.1 56.4,672.4 
				152.9,672.4 152.9,550.8 			"/>
			<rect id="XMLID_61_" x="56.4" y="793.9" fill-rule="evenodd" clip-rule="evenodd" fill="#3DBF69" width="96.5" height="121.6"/>
			<rect id="XMLID_60_" x="152.9" y="56.6" fill-rule="evenodd" clip-rule="evenodd" fill="#3DBF69" width="121.6" height="7.9"/>
			<rect id="XMLID_59_" x="639.2" y="56.6" fill-rule="evenodd" clip-rule="evenodd" fill="#3DBF69" width="121.6" height="7.9"/>
			<rect id="XMLID_58_" x="1125.5" y="56.6" fill-rule="evenodd" clip-rule="evenodd" fill="#3DBF69" width="121.6" height="7.9"/>
			<rect id="XMLID_57_" x="396.1" y="56.6" fill-rule="evenodd" clip-rule="evenodd" fill="#3DBF69" width="121.6" height="7.9"/>
			<rect id="XMLID_56_" x="882.4" y="56.6" fill-rule="evenodd" clip-rule="evenodd" fill="#3DBF69" width="121.6" height="7.9"/>
			<rect id="XMLID_55_" x="274.5" y="64.5" fill-rule="evenodd" clip-rule="evenodd" fill="#3DBF69" width="121.6" height="121.6"/>
			<rect id="XMLID_54_" x="760.8" y="64.5" fill-rule="evenodd" clip-rule="evenodd" fill="#3DBF69" width="121.6" height="121.6"/>
			<rect id="XMLID_53_" x="1247.1" y="64.5" fill-rule="evenodd" clip-rule="evenodd" fill="#3DBF69" width="96.5" height="121.6"/>
			
				<rect id="XMLID_52_" x="274.5" y="307.6" fill-rule="evenodd" clip-rule="evenodd" fill="#3DBF69" width="121.6" height="121.6"/>
			
				<rect id="XMLID_51_" x="760.8" y="307.6" fill-rule="evenodd" clip-rule="evenodd" fill="#3DBF69" width="121.6" height="121.6"/>
			<polygon id="XMLID_50_" fill-rule="evenodd" clip-rule="evenodd" fill="#3DBF69" points="1343.6,307.6 1247.1,307.6 
				1247.1,429.2 1343.6,429.2 1343.6,372.9 			"/>
			
				<rect id="XMLID_49_" x="274.5" y="550.8" fill-rule="evenodd" clip-rule="evenodd" fill="#3DBF69" width="121.6" height="121.6"/>
			
				<rect id="XMLID_48_" x="760.8" y="550.8" fill-rule="evenodd" clip-rule="evenodd" fill="#3DBF69" width="121.6" height="121.6"/>
			<polygon id="XMLID_47_" fill-rule="evenodd" clip-rule="evenodd" fill="#3DBF69" points="1343.6,550.8 1247.1,550.8 
				1247.1,672.4 1343.6,672.4 1343.6,607.1 			"/>
			
				<rect id="XMLID_46_" x="274.5" y="793.9" fill-rule="evenodd" clip-rule="evenodd" fill="#3DBF69" width="121.6" height="121.6"/>
			
				<rect id="XMLID_45_" x="760.8" y="793.9" fill-rule="evenodd" clip-rule="evenodd" fill="#3DBF69" width="121.6" height="121.6"/>
			
				<rect id="XMLID_44_" x="1247.1" y="793.9" fill-rule="evenodd" clip-rule="evenodd" fill="#3DBF69" width="96.5" height="121.6"/>
			
				<rect id="XMLID_43_" x="152.9" y="186.1" fill-rule="evenodd" clip-rule="evenodd" fill="#3DBF69" width="121.6" height="121.6"/>
			
				<rect id="XMLID_42_" x="639.2" y="186.1" fill-rule="evenodd" clip-rule="evenodd" fill="#3DBF69" width="121.6" height="121.6"/>
			
				<rect id="XMLID_41_" x="1125.5" y="186.1" fill-rule="evenodd" clip-rule="evenodd" fill="#3DBF69" width="121.6" height="121.6"/>
			
				<rect id="XMLID_40_" x="152.9" y="429.2" fill-rule="evenodd" clip-rule="evenodd" fill="#3DBF69" width="121.6" height="121.6"/>
			
				<rect id="XMLID_39_" x="639.2" y="429.2" fill-rule="evenodd" clip-rule="evenodd" fill="#3DBF69" width="121.6" height="121.6"/>
			
				<rect id="XMLID_38_" x="1125.5" y="429.2" fill-rule="evenodd" clip-rule="evenodd" fill="#3DBF69" width="121.6" height="121.6"/>
			
				<rect id="XMLID_37_" x="152.9" y="672.4" fill-rule="evenodd" clip-rule="evenodd" fill="#3DBF69" width="121.6" height="121.6"/>
			
				<rect id="XMLID_36_" x="639.2" y="672.4" fill-rule="evenodd" clip-rule="evenodd" fill="#3DBF69" width="121.6" height="121.6"/>
			
				<rect id="XMLID_35_" x="1125.5" y="672.4" fill-rule="evenodd" clip-rule="evenodd" fill="#3DBF69" width="121.6" height="121.6"/>
			<rect id="XMLID_34_" x="152.9" y="915.5" fill-rule="evenodd" clip-rule="evenodd" fill="#3DBF69" width="121.6" height="7.9"/>
			<rect id="XMLID_33_" x="639.2" y="915.5" fill-rule="evenodd" clip-rule="evenodd" fill="#3DBF69" width="121.6" height="7.9"/>
			<rect id="XMLID_32_" x="1125.5" y="915.5" fill-rule="evenodd" clip-rule="evenodd" fill="#3DBF69" width="121.6" height="7.9"/>
			
				<rect id="XMLID_31_" x="396.1" y="186.1" fill-rule="evenodd" clip-rule="evenodd" fill="#3DBF69" width="121.6" height="121.6"/>
			
				<rect id="XMLID_30_" x="882.4" y="186.1" fill-rule="evenodd" clip-rule="evenodd" fill="#3DBF69" width="121.6" height="121.6"/>
			
				<rect id="XMLID_29_" x="396.1" y="429.2" fill-rule="evenodd" clip-rule="evenodd" fill="#3DBF69" width="121.6" height="121.6"/>
			
				<rect id="XMLID_28_" x="882.4" y="429.2" fill-rule="evenodd" clip-rule="evenodd" fill="#3DBF69" width="121.6" height="121.6"/>
			
				<rect id="XMLID_27_" x="396.1" y="672.4" fill-rule="evenodd" clip-rule="evenodd" fill="#3DBF69" width="121.6" height="121.6"/>
			
				<rect id="XMLID_26_" x="882.4" y="672.4" fill-rule="evenodd" clip-rule="evenodd" fill="#3DBF69" width="121.6" height="121.6"/>
			<rect id="XMLID_25_" x="396.1" y="915.5" fill-rule="evenodd" clip-rule="evenodd" fill="#3DBF69" width="121.6" height="7.9"/>
			<rect id="XMLID_24_" x="882.4" y="915.5" fill-rule="evenodd" clip-rule="evenodd" fill="#3DBF69" width="121.6" height="7.9"/>
			<rect id="XMLID_23_" x="517.6" y="64.5" fill-rule="evenodd" clip-rule="evenodd" fill="#3DBF69" width="121.6" height="121.6"/>
			
				<rect id="XMLID_22_" x="1003.9" y="64.5" fill-rule="evenodd" clip-rule="evenodd" fill="#3DBF69" width="121.6" height="121.6"/>
			
				<rect id="XMLID_21_" x="517.6" y="307.6" fill-rule="evenodd" clip-rule="evenodd" fill="#3DBF69" width="121.6" height="121.6"/>
			
				<rect id="XMLID_20_" x="1003.9" y="307.6" fill-rule="evenodd" clip-rule="evenodd" fill="#3DBF69" width="121.6" height="121.6"/>
			
				<rect id="XMLID_19_" x="517.6" y="550.8" fill-rule="evenodd" clip-rule="evenodd" fill="#3DBF69" width="121.6" height="121.6"/>
			
				<rect id="XMLID_18_" x="1003.9" y="550.8" fill-rule="evenodd" clip-rule="evenodd" fill="#3DBF69" width="121.6" height="121.6"/>
			
				<rect id="XMLID_17_" x="517.6" y="793.9" fill-rule="evenodd" clip-rule="evenodd" fill="#3DBF69" width="121.6" height="121.6"/>
			
				<rect id="XMLID_16_" x="1003.9" y="793.9" fill-rule="evenodd" clip-rule="evenodd" fill="#3DBF69" width="121.6" height="121.6"/>
		</g>
		<path id="XMLID_83_" fill-rule="evenodd" clip-rule="evenodd" fill="#FFFFFF" d="M1343.6,737.7V607.1V372.9V242.3V56.6H65h-8.5
			v185.7v130.6v234.2v130.6v185.7h1287.1V737.7z M708.5,377.2c27.8,2.1,52.8,14.2,71.4,32.8c20.5,20.5,33.1,48.7,33.1,80
			c0,31.2-12.7,59.5-33.1,80c-18.6,18.6-43.6,30.7-71.4,32.8V377.2z M73.5,390h61.3v200H73.5V390z M73.5,607.1h78.4V372.9H73.5
			V259.4h179.6v461.2H73.5V607.1z M691.5,602.8c-27.8-2.1-52.8-14.2-71.4-32.8c-20.5-20.5-33.1-48.7-33.1-80
			c0-31.2,12.7-59.5,33.1-80c18.6-18.6,43.6-30.7,71.4-32.8V602.8z M691.5,360.1c-32.5,2.1-61.8,16.2-83.5,37.8
			c-23.6,23.6-38.1,56.1-38.1,92c0,35.9,14.6,68.5,38.1,92c21.7,21.7,51,35.7,83.5,37.8v286.5h-618V737.7h196.7V584
			c12.8-8.6,23.6-21.4,31.2-36.8c8.1-16.3,12.8-35.7,12.8-56.4c0-20.7-4.7-40.1-12.8-56.4c-7.7-15.4-18.5-28.2-31.2-36.8V242.3H73.5
			V73.7h618V360.1z M270.2,562V419.6c6.2,6.2,11.7,13.8,16,22.4c7,14,11,30.8,11,48.8c0,18-4.1,34.8-11,48.8
			C281.9,548.3,276.5,555.9,270.2,562z M1326.5,590h-61.3V390h61.3V590z M1326.5,372.9h-69.8h-8.5v234.2h78.4v113.5h-179.6V259.4
			h179.6V372.9z M1326.5,242.3h-188.2h-8.5v155.3c-12.8,8.6-23.6,21.4-31.2,36.8c-8.1,16.3-12.8,35.7-12.8,56.4
			c0,20.7,4.7,40.1,12.8,56.4c7.7,15.4,18.5,28.2,31.2,36.8v153.7h196.7v168.6h-618V619.9c32.5-2.1,61.8-16.2,83.5-37.8
			c23.6-23.6,38.1-56.1,38.1-92c0-35.9-14.6-68.5-38.1-92c-21.7-21.7-51-35.7-83.5-37.8V73.7h618V242.3z M1129.8,419.6V562
			c-6.3-6.2-11.7-13.7-16-22.4c-7-14-11-30.8-11-48.8c0-18,4.1-34.8,11-48.8C1118.1,433.4,1123.5,425.8,1129.8,419.6z"/>
	</g>
</g>
</svg>
